<svg aria-hidden="true" style="position:absolute;width:0;height:0" xmlns="http://www.w3.org/2000/svg" overflow="hidden"><defs><symbol id="icon-antenna1" viewBox="0 0 32 32"><path fill="var(--color1, #212121)" d="M30.773 22.098l-8.443-8.505.937-4.616c.225.09.485.144.758.146h.033a2.16 2.16 0 10-2.029-1.42l-.005-.015-4.96.606L8.973.161a.53.53 0 00-.376-.16.536.536 0 00-.373.155L6.712 1.66a.535.535 0 000 .754l.814.825C6.383 5.301 5.71 7.761 5.71 10.378c0 4.106 1.656 7.824 4.336 10.525l-.001-.001a.49.49 0 00.146.097 2.986 2.986 0 00-.052.546v6.188h-6.4a2.669 2.669 0 00-2.667 2.666v1.067c0 .295.239.534.534.534H26.14a.534.534 0 00.533-.534v-1.067a2.67 2.67 0 00-2.666-2.666h-6.4v-2.742a14.784 14.784 0 0010.166-1.502l-.077.039.818.823a.534.534 0 00.376.16.536.536 0 00.373-.155l1.512-1.504a.535.535 0 000-.754zM23.28 6.233a1.067 1.067 0 11.752 1.822h-.004a1.066 1.066 0 01-.747-1.822h-.002zm-1.256 3.504l-.598 2.946-1.175-1.183 1.774-1.763zm-.605-.902l-1.92 1.909-1.486-1.493 3.406-.416zM24.004 28.8a1.6 1.6 0 011.6 1.6v.534H2.138V30.4a1.6 1.6 0 011.6-1.6h20.267zm-7.466-2.134v1.067h-5.334v-1.067h5.334zM11.204 25.6v-4.053c0-1.294 1.196-2.346 2.667-2.346s2.667 1.053 2.667 2.346V25.6h-5.334zm6.4-1.696v-2.357c0-1.882-1.675-3.413-3.733-3.413h-.058c-1.353 0-2.54.707-3.213 1.771l-.009.016a13.817 13.817 0 01-3.812-9.55c0-2.314.567-4.496 1.569-6.414l-.036.077 18.602 18.709c-1.823.947-3.979 1.502-6.266 1.502-1.079 0-2.128-.124-3.136-.357l.093.018zm11.289-.684L7.836 2.039l.754-.752 7.935 7.98c.004 0 .006.007.01.01l13.114 13.191-.757.752z"/><path fill="var(--color2, #2196f3)" d="M13.876 20.267h-.007a1.6 1.6 0 00-.003 3.2h.007a1.6 1.6 0 00.002-3.2zm.373 1.978a.534.534 0 11-.378-.912.533.533 0 01.374.911h.005z"/></symbol><symbol id="icon-astronaut4" viewBox="0 0 32 32"><path fill="var(--color2, #2196f3)" d="M31.974 4.524a.535.535 0 00-.427-.362h-.003l-1.911-.278-.855-1.731c-.179-.365-.777-.365-.956 0l-.855 1.731-1.911.278a.534.534 0 00-.296.91l1.383 1.348-.326 1.903a.532.532 0 00.774.562l1.709-.899 1.709.899a.534.534 0 00.773-.565v.003l-.326-1.903 1.383-1.348a.535.535 0 00.134-.55l.001.004zm-2.463 1.327a.53.53 0 00-.153.472l.191 1.114-1-.526a.525.525 0 00-.501.001l.003-.001-1 .526.191-1.114a.53.53 0 00-.152-.472l-.811-.79 1.119-.162a.532.532 0 00.402-.292l.5-1.013.5 1.013a.532.532 0 00.402.292l1.119.162-.809.79zm-3.377 14.671h-1.067v1.067h1.067v-1.067zm0 2.134h-1.067v1.066h1.067v-1.066zm1.066-1.067h-1.067v1.067H27.2v-1.067zm-2.133 0H24v1.067h1.067v-1.067zm-2.667 4.8h-1.067v1.067H22.4v-1.067zm0 2.134h-1.067v1.067H22.4v-1.067zm1.067-1.067H22.4v1.067h1.067v-1.067zm-2.133 0h-1.067v1.067h1.067v-1.067zM16 24.256h-1.066v1.067H16v-1.067zm0 2.133h-1.066v1.067H16v-1.067zm1.067-1.067H16v1.067h1.067v-1.067zm-2.133 0h-1.067v1.067h1.067v-1.067zm-9.067-19.2H4.801v1.066h1.066V6.122zm0 2.134H4.801v1.066h1.066V8.256zm1.066-1.067H5.866v1.067h1.066V7.189zm-2.133 0H3.733v1.067H4.8V7.189z"/><path fill="var(--color1, #212121)" d="M24.715 14.16a1.774 1.774 0 00-1.179-.703l-.009-.001a1.769 1.769 0 00-1.344.355l.004-.003-1.253.96-1.898 1.417-1.358-.541c2.421-1.086 4.113-3.508 4.113-6.32 0-3.823-3.122-6.934-6.961-6.934S7.869 5.5 7.869 9.324c0 1.386.415 2.674 1.12 3.759l-2.768-.024c-.009 0-.016.005-.023.005a.511.511 0 00-.159.033l.004-.001c-.013.005-.026.007-.038.013-.006.003-.013.003-.019.006l-3.233 1.596-.001.001-1.893.91a.5.5 0 00-.065.036l.001-.001a1.782 1.782 0 00-.594 2.306l-.005-.01c.22.424.592.742 1.043.885l.013.003a1.772 1.772 0 001.388-.133l-.009.005 1.388-.738 2.264-1.169 1.357-.008-5.442 5.415-.001.001-1.339 1.333a1.643 1.643 0 00-.491 1.173v.005a1.668 1.668 0 001.667 1.664h.002a1.67 1.67 0 001.18-.485l1.314-1.309 1.741-1.3.901.897L4.07 27.28a1.643 1.643 0 00-.491 1.173v.004a1.662 1.662 0 001.666 1.664h.003a1.67 1.67 0 001.18-.485l4.488-4.472c.007-.006.016-.009.022-.016l5.166-5.658 3.471.494a.474.474 0 00.262-.032c.017-.006.032-.015.049-.023.019-.01.039-.015.058-.027l3.213-2.133c.012-.008.018-.021.029-.03.013-.01.029-.014.041-.026l1.271-1.191c.348-.326.564-.787.564-1.3 0-.4-.132-.769-.355-1.066l.003.005zM2.13 17.77a.706.706 0 01-.564.05l.005.001a.717.717 0 01-.215-1.258l.002-.001 1.314-.632.316.924.133.389-.992.527zm3.497-1.828l-1.548.8-.255-.746-.184-.537 2.027-1.001-.04 1.484zm15.1-6.62c0 .918-.219 1.785-.599 2.56l-4.181-1.899a1.865 1.865 0 00-.782-1.384l-.006-.004 1.464-4.861c2.377.757 4.104 2.975 4.104 5.588zm-11.789 0c0-3.235 2.644-5.867 5.894-5.867.253 0 .5.022.745.053l-1.432 4.753c-.019 0-.037-.006-.057-.006h-.001a1.872 1.872 0 00-1.872 1.867 1.873 1.873 0 001.872 1.867h.001c.695 0 1.295-.383 1.618-.944l3.863 1.755a5.891 5.891 0 01-4.737 2.39c-3.25 0-5.894-2.632-5.894-5.867zm5.957.8c0 .441-.362.8-.806.8h-.001a.804.804 0 01-.804-.8c0-.441.361-.8.806-.8s.806.359.806.8zM2.464 25.146a.606.606 0 01-.855.001.591.591 0 010-.844l.962-.959.852.848-.959.954zm3.214 3.734a.606.606 0 01-.855.001.591.591 0 010-.844l.963-.959.852.848-.96.955zm3.482-3.469l-.001.001-1.765 1.76-.852-.848 1.765-1.757a.527.527 0 00.09-.136c.007-.014.02-.026.026-.04.016-.041.019-.085.026-.128.003-.025.014-.048.014-.073 0-.035-.013-.07-.02-.105-.006-.032-.006-.064-.019-.096a.536.536 0 00-.092-.138c-.01-.012-.014-.026-.025-.038h-.001l-.001-.002-1.607-1.6c-.017-.017-.039-.024-.058-.038a.491.491 0 00-.084-.056l-.003-.001a.527.527 0 00-.09-.031l-.003-.001a.502.502 0 00-.101-.02h-.025a.603.603 0 00-.075.005h.003c-.036.005-.069.009-.104.021s-.064.027-.094.045c-.02.011-.043.015-.061.029l-1.774 1.324-.901-.897 2.399-2.386 4.36 4.289-.928.919zm6.819-7.017c-.016-.002-.03.004-.046.003l-.027-.001a.562.562 0 00-.092.008h.003a.484.484 0 00-.187.07l.002-.001a.492.492 0 00-.083.061c-.013.011-.028.016-.04.029l-4.698 5.146-4.328-4.256 2.833-2.818a.535.535 0 00-.378-.911h-.002l-2.219.013.028-1.607 3.104.027a6.928 6.928 0 004.978 2.101h.003c.438 0 .864-.046 1.28-.122.04.032.08.064.129.085l2.41.96.152.758.178.886-3.003-.427zm4.041.178l-.313-1.558 1.446-1.08.946 1.257-2.08 1.381zm3.753-2.831l-.837.785-.931-1.236.831-.637a.735.735 0 01.543-.143.718.718 0 01.621.71.71.71 0 01-.226.521z"/><path fill="var(--color1, #212121)" d="M13.602 18.544l-2.143-2.134a.53.53 0 00-.752 0l-2.143 2.133a.535.535 0 000 .756l2.142 2.134a.53.53 0 00.752 0l2.143-2.134a.532.532 0 000-.756zm-2.519 1.759l-1.387-1.381 1.386-1.381 1.387 1.381-1.387 1.381zm6.081-15.232l-.258 1.036c.071.018 1.738.452 1.738 2.149h1.067c0-2.017-1.666-2.965-2.547-3.184zm2.547 4.251h-1.067v1.066h1.067V9.322z"/></symbol><symbol id="icon-client1" viewBox="0 0 32 32"><path d="M7.245 0l4.231 4.005L3.622 4v19.434H24.15v-7.43l4.226 4.001V0H7.244zm16.72 15.534L11.968 4.177h11.997v11.357zm-3.725 5.058H6.871V7.522h.945v12.185H20.24v.885zm-10.212 5.43l-.494 1.017-.494-1.017h-.414l.721 1.356v.79h.374v-.79l.719-1.356h-.413zm.621 2.146l.174-.5h.831l.175.5h.389l-.812-2.146h-.335l-.811 2.146h.388zm.589-1.69l.311.89h-.622l.311-.89zm1.967.838a.488.488 0 00-.081.273c0 .181.063.328.19.441s.298.168.51.168.395-.057.548-.172l.121.143h.416l-.315-.373c.124-.169.186-.386.186-.65h-.311c0 .144-.03.276-.09.394l-.414-.489.146-.106c.103-.075.177-.149.223-.224s.068-.158.068-.248c0-.136-.05-.249-.15-.341s-.227-.139-.383-.139c-.173 0-.311.049-.413.147s-.153.23-.153.398c0 .069.016.14.049.214s.092.163.175.268a1.277 1.277 0 00-.32.296zm.968.475a.544.544 0 01-.339.121c-.107 0-.193-.031-.256-.093s-.096-.142-.096-.242c0-.115.059-.217.177-.307l.046-.032.469.553zm-.385-.951c-.101-.125-.152-.228-.152-.311 0-.072.021-.131.062-.178s.097-.071.167-.071c.065 0 .118.02.161.06a.188.188 0 01.063.143c0 .085-.03.154-.091.208l-.046.037-.164.112zm3.494 1.166a.783.783 0 00.254-.537h-.372c-.02.153-.066.263-.14.329s-.184.099-.33.099c-.16 0-.282-.061-.366-.183s-.124-.299-.124-.531v-.19c.002-.229.046-.402.133-.52a.435.435 0 01.374-.178c.14 0 .245.034.317.103.073.068.118.179.136.333h.372c-.024-.235-.108-.417-.252-.545s-.335-.193-.572-.193a.871.871 0 00-.466.125c-.134.084-.236.202-.308.357s-.108.333-.108.535v.2c.003.198.04.371.111.52s.171.265.301.346a.843.843 0 00.453.121c.245 0 .441-.064.588-.192zm2.192-.301c.073-.159.109-.344.109-.554v-.119c-.001-.209-.038-.393-.112-.55a.829.829 0 00-.778-.49.86.86 0 00-.466.128c-.135.085-.239.207-.314.367s-.111.345-.111.554v.121c.001.205.038.387.112.544s.18.279.315.364a.873.873 0 00.466.127.855.855 0 00.466-.127.823.823 0 00.313-.366zm-.4-1.213c.09.127.136.309.136.547v.112c0 .242-.045.426-.134.551a.436.436 0 01-.38.189c-.163 0-.291-.064-.383-.193s-.137-.311-.137-.547v-.124c.002-.231.048-.409.139-.535a.44.44 0 01.379-.19.44.44 0 01.382.19z"/></symbol><symbol id="icon-client2" viewBox="0 0 32 32"><path d="M14.224 1.806h-.084a9.985 9.985 0 00-.388-.014h-.28c-.244 0-.494.006-.741.019a.523.523 0 00-.056 0 17.4 17.4 0 00-6.471 1.651l-.266.128v13.625l.623-.211a23.32 23.32 0 011.731-.513 21.155 21.155 0 014.982-.662v1.79a15.56 15.56 0 00-.655.019h-.051a19.948 19.948 0 00-3.833.588c-1.59.398-3.124.996-4.566 1.779V2.53A18.3 18.3 0 018.959.582 18.343 18.343 0 0113.474 0h.263c.314.008.621.022.909.044.759.053 1.511.173 2.249.358v1.762a13.947 13.947 0 00-2.179-.329l-.045-.004c-.152-.013-.304-.026-.446-.026zm3.101 1.801c.391.03.796.044 1.205.044a19.352 19.352 0 004.747-.609c1.589-.4 3.123-.998 4.564-1.781v17.163a18.313 18.313 0 01-4.792 1.948 18.486 18.486 0 01-4.515.581 13.778 13.778 0 01-3.425-.404V3.274c.265.061.537.117.814.164.455.077.934.133 1.401.167zm8.735.133l-.623.21c-.573.192-1.15.365-1.731.518a21.098 21.098 0 01-5.173.663c-.406 0-.78-.011-1.141-.034l-.497-.033v14.017l.427.038c.395.034.803.052 1.214.052a16.573 16.573 0 004.074-.527 17.107 17.107 0 003.184-1.144l.266-.128V3.742zM5.377 25.977a.912.912 0 00-.693-.28 1.034 1.034 0 00-.4.075.91.91 0 00-.512.518 1.023 1.023 0 00-.072.387v2.335c-.006.165.026.328.092.479.055.12.135.226.234.313a.815.815 0 00.321.166c.114.032.231.048.349.049a.972.972 0 00.892-.61.951.951 0 00.075-.372v-.261h-.61v.208a.528.528 0 01-.036.208.359.359 0 01-.089.131.365.365 0 01-.128.067.425.425 0 01-.128.022.314.314 0 01-.286-.125.548.548 0 01-.081-.313v-2.177a.738.738 0 01.075-.349.31.31 0 01.299-.141.33.33 0 01.272.131c.068.09.104.2.101.313v.202h.604v-.238a1.093 1.093 0 00-.279-.737zM9.002 25.95a1.051 1.051 0 00-1.38 0 .961.961 0 00-.237.327 1.099 1.099 0 00-.089.452v2.239a1.08 1.08 0 00.089.459c.055.12.136.227.237.313a.94.94 0 00.322.197 1.028 1.028 0 00.728 0c.121-.044.233-.111.33-.197a.948.948 0 00.23-.313 1.08 1.08 0 00.089-.459v-2.239a1.08 1.08 0 00-.089-.452 1.015 1.015 0 00-.23-.327zm-.284 3.019a.405.405 0 01-.121.324.445.445 0 01-.574 0 .397.397 0 01-.121-.324V26.73a.405.405 0 01.121-.324.445.445 0 01.574 0 .397.397 0 01.121.324v2.239zM13.764 29.969V25.73h-.587l-.771 2.244h-.011l-.777-2.244h-.581v4.239h.606V27.39h.011l.593 1.823h.302l.598-1.823h.011v2.579h.606zM17.205 26.027a.84.84 0 00-.343-.232 1.363 1.363 0 00-.439-.066h-.9v4.239h.604v-1.656h.311c.189.009.376-.031.545-.116a.882.882 0 00.332-.324 1.02 1.02 0 00.139-.369c.024-.16.035-.321.033-.482a2.421 2.421 0 00-.059-.606.898.898 0 00-.223-.39zm-.311 1.292a.547.547 0 01-.056.221.346.346 0 01-.156.149.619.619 0 01-.285.053h-.276v-1.441h.311a.578.578 0 01.272.053.349.349 0 01.142.157.62.62 0 01.053.236v.282c0 .099.006.2 0 .291h-.006zM20.066 25.73h-.495l-.934 4.239h.604l.177-.911h.823l.177.911h.604l-.957-4.239zm-.557 2.751l.297-1.537h.011l.296 1.537h-.604zM23.969 28.284h-.011l-.912-2.554h-.581v4.239h.604V27.42h.012l.923 2.549h.568V25.73h-.604v2.554zM27.66 25.73l-.486 1.685h-.012l-.486-1.685h-.64l.83 2.447v1.792h.604v-1.792l.83-2.447h-.64zM3.692 31.166h.291v.817h.198v-.817h.29v-.167h-.778v.167zM6.14 30.998l-.381.984h.21l.081-.224h.392l.084.224h.215l-.391-.984h-.21zm-.032.595l.134-.365.134.365h-.268zM8.559 31.62h.227v.127a.38.38 0 01-.233.083.244.244 0 01-.209-.093.411.411 0 01-.073-.257c0-.219.095-.329.283-.329a.206.206 0 01.222.157l.195-.038c-.042-.192-.181-.289-.417-.289a.495.495 0 00-.344.127.494.494 0 00-.141.379.532.532 0 00.126.369.477.477 0 00.374.144.59.59 0 00.417-.157v-.388h-.427v.166zM11.029 30.998h-.199v.984h.69v-.167h-.49v-.817zM13.118 30.998h-.199v.984h.199v-.984zM15.161 31.656l-.403-.657h-.193v.984h.185v-.643l.395.643h.198v-.984h-.182v.657zM17.007 31.549h.49v-.167h-.49v-.216h.528v-.167h-.727v.984h.747v-.167h-.548v-.266zM21.484 31.387h-.388v-.388h-.198v.984h.198v-.43h.388v.43h.198v-.984h-.198v.388zM23.342 31.549h.492v-.167h-.492v-.216h.529v-.167h-.727v.984h.746v-.167h-.548v-.266zM25.86 31.549c.171-.027.258-.117.258-.274a.236.236 0 00-.096-.219.553.553 0 00-.288-.058h-.417v.984h.198v-.412h.039a.261.261 0 01.123.022.21.21 0 01.07.072l.215.313h.237l-.12-.192a.685.685 0 00-.218-.236zm-.199-.136h-.146v-.247h.156a.526.526 0 01.201.023c.014.013.026.029.033.046a.133.133 0 01-.005.111.128.128 0 01-.037.043.547.547 0 01-.201.023zM27.76 31.549h.49v-.167h-.49v-.216h.529v-.167h-.729v.984h.747v-.167h-.548v-.266z"/></symbol><symbol id="icon-client3" viewBox="0 0 32 32"><path d="M5.267 30.294a.098.098 0 01.06.024l.155.148c-.12.12-.269.216-.436.281a1.701 1.701 0 01-.619.101 1.66 1.66 0 01-.582-.094 1.266 1.266 0 01-.438-.266 1.189 1.189 0 01-.283-.411 1.373 1.373 0 01-.099-.527 1.223 1.223 0 01.408-.94c.132-.116.291-.207.465-.268.191-.064.394-.096.599-.094.19-.004.379.025.556.086.154.058.295.138.417.238l-.13.158a.132.132 0 01-.033.029.093.093 0 01-.052.012.119.119 0 01-.056-.017l-.07-.042-.097-.054a1.136 1.136 0 00-.306-.094 1.366 1.366 0 00-.231-.017 1.225 1.225 0 00-.43.071 1 1 0 00-.337.199.918.918 0 00-.219.317 1.042 1.042 0 00-.079.418c-.002.145.025.288.079.425.047.116.12.223.215.315a.878.878 0 00.322.195c.127.046.262.068.399.067.079.001.158-.003.237-.013a.944.944 0 00.512-.217.12.12 0 01.074-.027zM9.745 29.549c.002.179-.033.356-.105.524-.063.152-.163.291-.292.407s-.286.207-.458.267c-.38.126-.799.126-1.179 0a1.36 1.36 0 01-.456-.268 1.192 1.192 0 01-.295-.411c-.14-.339-.14-.71 0-1.05.066-.153.166-.293.295-.413.13-.112.285-.2.456-.258.379-.128.8-.128 1.179 0 .172.061.328.152.458.268.128.117.227.255.293.406.072.169.107.347.105.527zm-.407 0a1.11 1.11 0 00-.074-.421.863.863 0 00-.535-.514 1.365 1.365 0 00-.857 0 .912.912 0 00-.328.199.836.836 0 00-.209.315 1.23 1.23 0 000 .842.86.86 0 00.537.512c.276.09.581.09.857 0a.922.922 0 00.328-.197.872.872 0 00.207-.315 1.11 1.11 0 00.074-.421zM12.801 29.991l.041.094c.015-.034.029-.064.045-.094.015-.032.032-.063.05-.093l.991-1.565c.019-.027.037-.044.056-.049a.246.246 0 01.081-.008h.293v2.545h-.347V28.95v-.079a.646.646 0 010-.088l-.997 1.587c-.013.024-.033.044-.058.058s-.055.021-.085.021h-.056c-.03 0-.06-.007-.085-.021s-.046-.034-.058-.058l-1.026-1.597v2.043h-.335v-2.54h.293a.272.272 0 01.081.008c.024.01.043.028.054.049l1.012 1.567c.02.029.037.059.05.091zM16.529 29.864v.953h-.388v-2.542h.865c.163-.003.326.016.483.056a.97.97 0 01.341.158.655.655 0 01.194.249.766.766 0 01.066.325.727.727 0 01-.072.325.698.698 0 01-.209.254.981.981 0 01-.343.168 1.63 1.63 0 01-.467.059l-.469-.007zm0-.272h.469a1.08 1.08 0 00.3-.039.645.645 0 00.217-.11.487.487 0 00.179-.382c.004-.071-.009-.141-.039-.207s-.076-.125-.136-.174a.834.834 0 00-.522-.136h-.469v1.048zM21.741 30.821h-.306a.139.139 0 01-.085-.024.157.157 0 01-.05-.059l-.264-.615h-1.324l-.273.615a.14.14 0 01-.049.057.148.148 0 01-.087.025h-.306l1.163-2.546h.403l1.179 2.546zm-1.92-.945h1.093l-.461-1.036a1.755 1.755 0 01-.087-.239l-.045.133c-.014.04-.029.078-.043.108l-.458 1.034zM23.416 28.288a.174.174 0 01.058.045l1.697 1.919v-.089-1.887h.347v2.545h-.194a.174.174 0 01-.141-.062l-1.695-1.917a.646.646 0 010 .088v1.891h-.347v-2.545h.206a.167.167 0 01.07.012zM28.375 29.809v1.011h-.388v-1.011l-1.072-1.533h.347a.133.133 0 01.083.022.216.216 0 01.052.057l.671.989c.027.042.05.081.07.118s.035.072.049.108l.05-.11a.888.888 0 01.066-.116l.661-.996a.284.284 0 01.05-.054.128.128 0 01.083-.025h.351l-1.074 1.54zM12.609 24.004c.169.019.339.034.512.047 2.616-1.017 4.829-2.681 6.363-4.785s2.319-4.553 2.259-7.043L18.86 9.718c.586 2.651.312 5.39-.792 7.913s-2.994 4.729-5.459 6.372z"/><path d="M11.579 23.888l.078.013c2.634-1.637 4.642-3.923 5.765-6.562s1.308-5.51.533-8.242l-4.106-3.568c1.661 2.933 2.33 6.215 1.928 9.464s-1.857 6.334-4.196 8.893zM25.506 15.165c-.698 2.735-2.392 5.202-4.832 7.035a15.392 15.392 0 01-2.296 1.432c1.986-.507 3.812-1.404 5.337-2.621s2.707-2.723 3.456-4.4l-1.665-1.445z"/><path d="M24.853 14.763l-2.371-2.06c-.045 2.349-.814 4.644-2.226 6.648s-3.416 3.642-5.803 4.745h.012c.532 0 1.064-.028 1.592-.083 2.231-.791 4.202-2.05 5.737-3.664s2.586-3.533 3.06-5.586zM11.923 4.026L9.094 1.565c-2.529.849-4.704 2.342-6.24 4.282S.492 10.086.484 12.442c.009 2.603 1.018 5.128 2.865 7.177s4.429 3.504 7.335 4.135c2.594-2.746 4.113-6.14 4.336-9.688s-.862-7.065-3.097-10.04zM31.388 14.384c-.01-3.088-1.427-6.047-3.94-8.23s-5.919-3.414-9.473-3.423a15.073 15.073 0 00-4.803.777l17.32 15.048c.593-1.33.897-2.744.896-4.171z"/><symbol id="icon-client4" viewBox="0 0 65 32">
<path d="M10.016 9.983h-0.002c-1.827 0-3.308 1.316-3.308 2.94v0.002c0 1.624 1.481 2.94 3.308 2.94h0.002c1.827 0 3.308-1.316 3.308-2.94v-0.002c0-1.624-1.481-2.94-3.308-2.94z"></path>
<path d="M34.434 9.043c-0.005-2.255-1.015-4.417-2.81-6.012s-4.226-2.493-6.764-2.498v0c-2.538 0.004-4.972 0.902-6.767 2.497s-2.806 3.757-2.811 6.013v12.436c0 0 19.149-1.895 19.151-12.434v-0.002z"></path>
<path d="M0 25.562c0.005 1.569 0.708 3.073 1.956 4.183s2.94 1.735 4.706 1.74c1.765-0.005 3.457-0.63 4.705-1.739s1.952-2.613 1.957-4.182v-8.654c0 0-13.325 1.32-13.325 8.652zM6.662 27.112c-0.345 0-0.682-0.091-0.969-0.261s-0.511-0.413-0.643-0.696c-0.132-0.283-0.167-0.595-0.099-0.896s0.233-0.577 0.477-0.794 0.555-0.364 0.893-0.424c0.338-0.060 0.689-0.029 1.008 0.088s0.591 0.316 0.783 0.571c0.192 0.255 0.294 0.555 0.294 0.861 0.001 0.204-0.044 0.406-0.131 0.595s-0.216 0.36-0.378 0.505c-0.162 0.145-0.355 0.259-0.567 0.338s-0.439 0.119-0.669 0.119v-0.006z"></path>
<path d="M20.128 26.258h-1.286v1.328h-0.67v-3.25h2.116v0.542h-1.446v0.839h1.286v0.54zM23.346 26.035c0 0.32-0.057 0.6-0.17 0.842s-0.275 0.427-0.487 0.558c-0.21 0.131-0.451 0.196-0.723 0.196-0.269 0-0.51-0.065-0.721-0.194s-0.375-0.314-0.491-0.554c-0.116-0.241-0.175-0.518-0.176-0.83v-0.161c0-0.32 0.057-0.601 0.172-0.844 0.116-0.244 0.279-0.431 0.489-0.56 0.211-0.131 0.452-0.196 0.723-0.196s0.511 0.065 0.721 0.196c0.211 0.129 0.374 0.316 0.489 0.56 0.116 0.242 0.174 0.523 0.174 0.841v0.145zM22.668 25.888c0-0.341-0.061-0.6-0.183-0.777s-0.296-0.266-0.522-0.266c-0.225 0-0.398 0.088-0.52 0.263-0.122 0.174-0.184 0.43-0.185 0.768v0.158c0 0.332 0.061 0.589 0.183 0.772s0.298 0.275 0.527 0.275c0.225 0 0.397-0.088 0.518-0.263 0.121-0.177 0.182-0.434 0.183-0.772v-0.158zM25.518 26.734c0-0.126-0.045-0.223-0.134-0.29-0.089-0.068-0.25-0.14-0.482-0.214-0.232-0.076-0.416-0.15-0.551-0.223-0.369-0.199-0.554-0.468-0.554-0.806 0-0.176 0.049-0.332 0.147-0.469 0.1-0.138 0.242-0.246 0.426-0.324 0.186-0.077 0.394-0.116 0.625-0.116 0.232 0 0.439 0.042 0.621 0.127 0.181 0.083 0.322 0.202 0.422 0.355 0.101 0.153 0.152 0.327 0.152 0.522h-0.67c0-0.149-0.047-0.264-0.141-0.346-0.094-0.083-0.225-0.125-0.395-0.125-0.164 0-0.291 0.035-0.382 0.105-0.091 0.068-0.136 0.159-0.136 0.272 0 0.106 0.053 0.194 0.158 0.266 0.107 0.071 0.264 0.138 0.471 0.201 0.381 0.115 0.659 0.257 0.833 0.426s0.261 0.381 0.261 0.634c0 0.281-0.106 0.502-0.319 0.663-0.213 0.159-0.499 0.239-0.859 0.239-0.25 0-0.478-0.045-0.683-0.136-0.205-0.092-0.362-0.218-0.471-0.377-0.107-0.159-0.161-0.344-0.161-0.554h0.672c0 0.359 0.214 0.538 0.643 0.538 0.159 0 0.284-0.032 0.373-0.096 0.089-0.065 0.134-0.156 0.134-0.272zM29.092 24.879h-0.996v2.708h-0.67v-2.708h-0.982v-0.542h2.647v0.542zM31.431 26.178h-1.286v0.871h1.509v0.538h-2.179v-3.25h2.174v0.542h-1.504v0.775h1.286v0.525zM33.251 26.396h-0.533v1.19h-0.67v-3.25h1.208c0.384 0 0.68 0.086 0.888 0.257s0.312 0.413 0.312 0.725c0 0.222-0.048 0.407-0.145 0.556-0.095 0.147-0.24 0.265-0.435 0.353l0.703 1.328v0.031h-0.719l-0.609-1.19zM32.717 25.854h0.54c0.168 0 0.298-0.042 0.391-0.127 0.092-0.086 0.138-0.205 0.138-0.355 0-0.153-0.044-0.274-0.132-0.362-0.086-0.088-0.219-0.132-0.4-0.132h-0.538v0.975zM36.775 26.441v1.145h-0.67v-3.25h1.268c0.244 0 0.458 0.045 0.643 0.134 0.186 0.089 0.329 0.216 0.429 0.382 0.1 0.164 0.15 0.35 0.15 0.56 0 0.318-0.109 0.57-0.328 0.754-0.217 0.183-0.519 0.275-0.904 0.275h-0.587zM36.775 25.899h0.598c0.177 0 0.312-0.042 0.404-0.125 0.094-0.083 0.141-0.202 0.141-0.357 0-0.159-0.047-0.288-0.141-0.386s-0.223-0.149-0.388-0.152h-0.614v1.020zM41.012 26.178h-1.286v0.871h1.509v0.538h-2.179v-3.25h2.174v0.542h-1.504v0.775h1.286v0.525zM44.119 24.879h-0.995v2.708h-0.67v-2.708h-0.982v-0.542h2.647v0.542zM46.458 26.178h-1.286v0.871h1.509v0.538h-2.178v-3.25h2.174v0.542h-1.504v0.775h1.286v0.525zM48.277 26.396h-0.533v1.19h-0.67v-3.25h1.208c0.384 0 0.68 0.086 0.888 0.257s0.313 0.413 0.313 0.725c0 0.222-0.048 0.407-0.145 0.556-0.095 0.147-0.24 0.265-0.435 0.353l0.703 1.328v0.031h-0.719l-0.609-1.19zM47.744 25.854h0.54c0.168 0 0.298-0.042 0.391-0.127 0.092-0.086 0.138-0.205 0.138-0.355 0-0.153-0.044-0.274-0.132-0.362-0.086-0.088-0.219-0.132-0.4-0.132h-0.538v0.975zM51.679 26.734c0-0.126-0.045-0.223-0.134-0.29-0.089-0.068-0.25-0.14-0.482-0.214-0.232-0.076-0.416-0.15-0.551-0.223-0.369-0.199-0.554-0.468-0.554-0.806 0-0.176 0.049-0.332 0.147-0.469 0.1-0.138 0.242-0.246 0.426-0.324 0.186-0.077 0.394-0.116 0.625-0.116 0.232 0 0.439 0.042 0.621 0.127 0.182 0.083 0.322 0.202 0.422 0.355 0.101 0.153 0.152 0.327 0.152 0.522h-0.67c0-0.149-0.047-0.264-0.141-0.346-0.094-0.083-0.225-0.125-0.395-0.125-0.164 0-0.291 0.035-0.382 0.105-0.091 0.068-0.136 0.159-0.136 0.272 0 0.106 0.053 0.194 0.158 0.266 0.107 0.071 0.264 0.138 0.471 0.201 0.381 0.115 0.658 0.257 0.833 0.426s0.261 0.381 0.261 0.634c0 0.281-0.106 0.502-0.319 0.663-0.213 0.159-0.499 0.239-0.859 0.239-0.25 0-0.478-0.045-0.683-0.136-0.205-0.092-0.362-0.218-0.471-0.377-0.107-0.159-0.161-0.344-0.161-0.554h0.672c0 0.359 0.214 0.538 0.643 0.538 0.159 0 0.283-0.032 0.373-0.096 0.089-0.065 0.134-0.156 0.134-0.272z"></path>
</symbol><symbol id="icon-client5" viewBox="0 0 32 32"><path d="M2.416 23.738c.124.14.19.316.186.496.006.118-.016.235-.066.344s-.126.205-.222.283c-.24.166-.538.248-.839.229H0v-3.145h1.445c.285-.017.568.056.8.209.093.072.167.162.216.264s.071.213.064.324a.69.69 0 01-.168.481.796.796 0 01-.44.246.856.856 0 01.498.269zm-1.73-.474h.617c.14.009.28-.028.393-.104.046-.038.082-.086.105-.139s.032-.111.027-.168c.004-.057-.005-.114-.028-.167s-.058-.101-.103-.14a.635.635 0 00-.404-.106H.686v.825zm1.071 1.206c.05-.039.089-.089.114-.144s.036-.115.032-.175a.387.387 0 00-.15-.322.683.683 0 00-.419-.114H.686v.865h.656a.693.693 0 00.414-.109zM5.369 25.09l-.804-1.229h-.302v1.229h-.691v-3.145h1.309c.33-.021.656.075.911.267.183.171.293.396.311.634s-.058.475-.214.667a1.096 1.096 0 01-.624.32l.856 1.257h-.752zm-1.105-1.657h.565c.393 0 .589-.159.589-.476.004-.065-.007-.13-.032-.191s-.063-.116-.113-.163a.659.659 0 00-.445-.128h-.572l.007.957zM9.148 24.457H7.77l-.243.633h-.725l1.265-3.11h.784l1.26 3.11h-.725l-.238-.633zm-.185-.476l-.503-1.327-.503 1.327h1.007zM13.878 25.09h-.686l-1.539-2.139v2.139h-.685v-3.145h.685l1.539 2.151v-2.151h.686v3.145zM17.794 24.338a1.433 1.433 0 01-.621.555c-.299.138-.63.206-.965.198h-1.222v-3.145h1.222c.334-.008.665.058.965.194.263.121.479.312.621.548.141.256.215.538.215.825s-.074.569-.215.825zm-.785-.076c.196-.209.304-.475.304-.751s-.108-.542-.304-.75a1.264 1.264 0 00-.859-.267h-.476v2.036h.476c.314.018.622-.078.859-.267zM9.578 4.453s8.858 3.062 8.67 7.493v7.494s-8.851-3.063-8.666-7.494l-.003-7.493zM26.139 17.685a12.85 12.85 0 015.628-1.899V13.44c-2.327.821-4.302 2.311-5.628 4.245z"/><path d="M25.134 18.392c1.369-2.524 3.743-4.472 6.633-5.443v-6.76S19.152 10.551 19.419 16.86v10.67s.562-.195 1.446-.561c0-.341 0-.685.04-1.031.261-2.929 1.782-5.644 4.228-7.546z"/><path d="M23.934 22.356c.066-.74.214-1.472.441-2.185-1.523 1.643-2.446 3.682-2.638 5.83a9.502 9.502 0 00-.034.615c.716-.315 1.55-.708 2.426-1.171a10.093 10.093 0 01-.196-3.09zM24.436 22.394a9.664 9.664 0 00.156 2.798c3.446-1.888 7.319-4.806 7.17-8.332v-.307c-2.462.252-4.766 1.238-6.557 2.805a9.782 9.782 0 00-.768 3.036z"/></symbol><symbol id="icon-client6" viewBox="0 0 67 32">
<path d="M33.724 15.224c-0.315-0.419-0.466-0.915-0.43-1.414v-2.050c0-0.628 0.142-1.106 0.428-1.433s0.775-0.489 1.469-0.488c0.652 0 1.115 0.139 1.389 0.417 0.299 0.355 0.444 0.789 0.411 1.226v0.482h-1.167v-0.488c0.004-0.16-0.007-0.319-0.034-0.478-0.017-0.108-0.076-0.208-0.167-0.284-0.12-0.081-0.271-0.121-0.423-0.111-0.16-0.010-0.318 0.031-0.444 0.117-0.102 0.084-0.169 0.193-0.193 0.313-0.033 0.167-0.049 0.337-0.046 0.507v2.488c-0.018 0.24 0.033 0.48 0.15 0.699 0.058 0.074 0.139 0.132 0.233 0.169s0.198 0.050 0.301 0.039c0.149 0.011 0.298-0.030 0.413-0.113 0.095-0.082 0.156-0.188 0.174-0.302 0.027-0.165 0.039-0.332 0.036-0.498v-0.505h1.167v0.461c0.033 0.456-0.109 0.909-0.403 1.289-0.268 0.305-0.725 0.457-1.396 0.457s-1.179-0.163-1.466-0.501z"></path>
<path d="M38.583 15.245c-0.295-0.319-0.442-0.784-0.442-1.4v-2.157c0-0.609 0.147-1.070 0.442-1.383s0.788-0.469 1.478-0.467c0.686 0 1.177 0.156 1.471 0.467 0.295 0.313 0.444 0.774 0.444 1.383v2.157c0 0.609-0.15 1.076-0.449 1.397s-0.788 0.482-1.466 0.482c-0.679 0-1.181-0.163-1.478-0.48zM40.605 14.727c0.106-0.2 0.154-0.419 0.14-0.638v-2.641c0.014-0.215-0.034-0.43-0.138-0.626-0.059-0.075-0.142-0.135-0.238-0.172s-0.203-0.050-0.308-0.037c-0.105-0.013-0.212 0-0.308 0.037s-0.18 0.096-0.24 0.172c-0.106 0.195-0.154 0.41-0.14 0.626v2.653c-0.015 0.219 0.033 0.439 0.14 0.638 0.068 0.067 0.152 0.121 0.246 0.158s0.196 0.056 0.3 0.056c0.103 0 0.206-0.019 0.3-0.056s0.178-0.091 0.246-0.158v-0.012z"></path>
<path d="M43.38 9.901h1.256l0.945 3.979 0.966-3.979h1.222l0.123 5.743h-0.904l-0.097-3.992-0.932 3.992h-0.725l-0.966-4.006-0.089 4.006h-0.913l0.114-5.743z"></path>
<path d="M49.301 9.901h1.957c1.127 0 1.691 0.544 1.691 1.631 0 1.041-0.593 1.561-1.78 1.56h-0.667v2.553h-1.208l0.007-5.743zM50.973 12.356c0.119 0.013 0.24 0.004 0.355-0.028s0.22-0.084 0.309-0.154c0.139-0.194 0.2-0.422 0.174-0.649 0.006-0.175-0.013-0.35-0.058-0.521-0.017-0.057-0.047-0.111-0.089-0.158s-0.093-0.086-0.153-0.116c-0.168-0.069-0.353-0.101-0.539-0.092h-0.469v1.716h0.469z"></path>
<path d="M54.691 9.901h1.297l1.331 5.743h-1.126l-0.263-1.324h-1.157l-0.271 1.324h-1.143l1.331-5.743zM55.8 13.655l-0.452-2.411-0.452 2.411h0.903z"></path>
<path d="M58.395 9.901h0.846l1.619 3.276v-3.276h1.003v5.743h-0.804l-1.628-3.42v3.42h-1.036l0.002-5.743z"></path>
<path d="M64.209 13.455l-1.346-3.546h1.133l0.821 2.277 0.771-2.277h1.109l-1.329 3.546v2.19h-1.16v-2.19z"></path>
<path d="M35.589 18.156v0.3h-0.986v2.334h-0.413v-2.334h-0.99v-0.3h2.389z"></path>
<path d="M38.679 20.79h-0.319c-0.032 0.002-0.064-0.007-0.089-0.025-0.024-0.015-0.043-0.036-0.053-0.060l-0.285-0.626h-1.367l-0.285 0.626c-0.008 0.026-0.023 0.050-0.044 0.071-0.025 0.017-0.057 0.026-0.089 0.025h-0.319l1.208-2.634h0.42l1.222 2.624zM36.679 19.812h1.14l-0.483-1.072c-0.036-0.081-0.066-0.164-0.089-0.248-0.017 0.050-0.031 0.098-0.046 0.14l-0.044 0.11-0.478 1.070z"></path>
<path d="M40.762 20.532c0.076 0.003 0.151 0.003 0.227 0 0.065-0.006 0.13-0.016 0.193-0.031 0.059-0.013 0.117-0.029 0.174-0.048 0.053-0.019 0.106-0.042 0.162-0.065v-0.592h-0.483c-0.012 0.001-0.024-0.001-0.035-0.005s-0.021-0.009-0.030-0.016c-0.008-0.006-0.014-0.013-0.018-0.022s-0.006-0.017-0.006-0.026v-0.202h0.937v1.010c-0.077 0.047-0.157 0.089-0.242 0.125-0.086 0.037-0.176 0.067-0.268 0.090-0.099 0.025-0.2 0.043-0.302 0.054-0.117 0.011-0.235 0.017-0.353 0.017-0.208 0.002-0.415-0.032-0.609-0.098-0.181-0.063-0.345-0.156-0.483-0.275-0.134-0.12-0.24-0.262-0.312-0.417-0.076-0.175-0.114-0.36-0.111-0.547-0.003-0.188 0.034-0.374 0.109-0.551 0.069-0.156 0.176-0.298 0.312-0.417 0.138-0.119 0.302-0.212 0.483-0.273 0.207-0.067 0.426-0.1 0.647-0.098 0.112-0 0.225 0.008 0.336 0.023 0.098 0.014 0.195 0.036 0.288 0.067 0.084 0.027 0.165 0.062 0.242 0.104 0.074 0.041 0.144 0.087 0.21 0.138l-0.116 0.163c-0.009 0.015-0.023 0.027-0.039 0.036s-0.036 0.014-0.055 0.014c-0.027-0.001-0.053-0.008-0.075-0.021-0.036-0.017-0.075-0.038-0.118-0.063-0.051-0.028-0.106-0.052-0.162-0.071-0.072-0.025-0.146-0.044-0.222-0.058-0.101-0.016-0.204-0.024-0.307-0.023-0.159-0.002-0.318 0.023-0.466 0.073-0.134 0.047-0.256 0.118-0.355 0.209-0.1 0.095-0.177 0.206-0.225 0.328-0.108 0.285-0.108 0.593 0 0.878 0.053 0.124 0.135 0.237 0.242 0.332 0.099 0.090 0.219 0.162 0.353 0.209 0.154 0.046 0.316 0.063 0.478 0.052z"></path>
<path d="M44.612 20.49h1.319v0.3h-1.722v-2.634h0.413l-0.010 2.334z"></path>
<path d="M47.304 20.79h-0.413v-2.634h0.413v2.634z"></path>
<path d="M48.84 18.168c0.025 0.012 0.046 0.028 0.063 0.048l1.766 1.986c-0.002-0.031-0.002-0.063 0-0.094 0-0.029 0-0.058 0-0.085v-1.877h0.36v2.645h-0.208c-0.031 0.002-0.062-0.003-0.089-0.015-0.025-0.013-0.047-0.030-0.065-0.050l-1.764-1.984c0 0.031 0 0.061 0 0.090s0 0.056 0 0.081v1.877h-0.345v-2.634h0.215c0.023 0 0.046 0.004 0.068 0.012z"></path>
<path d="M54.070 18.156v0.29h-1.464v0.87h1.186v0.279h-1.186v0.899h1.464v0.29h-1.889v-2.628h1.889z"></path>
<path d="M10.782 1.888l18.343 4.497v15.757l-18.343-4.494v-15.759zM9.605 0.545v17.867l20.694 5.074v-17.865l-20.694-5.076z"></path>
<path d="M20.696 31.781l-20.696-5.079v-17.866l20.696 5.076v17.868z"></path>
<path d="M9.948 1.686l18.104 4.44-7.699 6.649-18.106-4.442 7.702-6.647zM9.605 0.545l-9.605 8.292 20.696 5.076 9.603-8.292-20.694-5.076z"></path>
<path d="M21.861 30.776l8.438-7.287-8.438-2.071v9.358z"></path>
</symbol><symbol id="icon-clock2" viewBox="0 0 32 32"><path fill="var(--color1, #212121)" d="M31.296 15.301C31.295 6.849 24.441-.002 15.988 0S.685 6.855.687 15.308c.002 6.788 4.422 12.543 10.541 14.545l.108.031a.667.667 0 00.529-.065.636.636 0 00.283-.357l3.865-12.25a1.913 1.913 0 10-.852-3.63l.011-.005-5.106-5.107a.638.638 0 00-.902.902l5.103 5.109a1.847 1.847 0 00-.191.826c0 .602.283 1.137.723 1.48l.004.003-3.682 11.673C3.843 25.782.117 17.709 2.797 10.431S13.551-.573 20.829 2.108c7.278 2.681 11.004 10.754 8.323 18.032-1.345 3.581-4.003 6.406-7.374 7.938l-.088.036-.398-1.874a.639.639 0 00-1.05-.343l.001-.001-3.837 3.426a.637.637 0 00.227 1.083l.005.001 4.899 1.563a.637.637 0 00.818-.744l.001.004-.391-1.839c5.528-2.374 9.329-7.772 9.329-14.057v-.034.002zm-15.304-.637a.638.638 0 010 1.276.638.638 0 010-1.276zm2.1 14.864l2.184-1.948.603 2.84-2.787-.892z"/><path fill="var(--color2, #2196f3)" d="M15.354 3.185V4.46a.638.638 0 001.276 0V3.185a.638.638 0 10-1.276 0zM3.876 14.664a.638.638 0 000 1.276h1.275a.638.638 0 000-1.276H3.876zm24.232 1.275a.638.638 0 000-1.276h-1.275a.638.638 0 000 1.276h1.275z"/></symbol><symbol id="icon-diagram3" viewBox="0 0 32 32"><path fill="var(--color2, #2196f3)" d="M14.926 14.965h1.066v4.798h-1.066v-4.798zm4.264 2.132h1.066v2.665H19.19v-2.665zm-8.529 1.599h1.066v1.066h-1.066v-1.066zm-3.198-.533h1.066v1.599H7.463v-1.599z"/><path fill="var(--color1, #212121)" d="M1.599 28.291h25.586a1.6 1.6 0 001.599-1.599V24.56a1.6 1.6 0 00-1.599-1.599h-.533V9.667l3.028-2.868a1.608 1.608 0 10-.742-.752l-.004-.01-2.281 2.162v-1.23a1.6 1.6 0 00-1.599-1.599H3.731a1.6 1.6 0 00-1.599 1.599v15.992h-.533A1.6 1.6 0 000 24.56v2.132a1.6 1.6 0 001.599 1.599zM30.384 4.837a.533.533 0 010 1.066.533.533 0 010-1.066zM3.198 6.969c0-.294.239-.533.533-.533h21.323c.294 0 .533.239.533.533v2.239l-1.066 1.013V8.036a.534.534 0 00-.534-.534H4.798a.534.534 0 00-.534.533v13.327c0 .294.239.533.534.533h19.189a.534.534 0 00.534-.533v-9.675l1.066-1.01V22.96H3.198V6.969zm4.798 6.93h-.005a1.6 1.6 0 101.112 2.748l1.853.93a.535.535 0 00.636-.122l3.939-4.432 3.872 2.902a.534.534 0 00.686-.039l3.365-3.188v8.131H5.331V8.568h18.123v2.661l-3.771 3.572-3.904-2.927a.534.534 0 00-.718.071v.001l-3.993 4.493-1.493-.746c.011-.064.017-.128.02-.193a1.6 1.6 0 00-1.599-1.599zm.533 1.599a.533.533 0 01-1.066 0 .533.533 0 011.066 0zm3.198 8.528h5.33v.533a.533.533 0 01-.533.533h-4.265a.533.533 0 01-.533-.533v-.533zm-10.66.534c0-.294.238-.533.533-.533h9.062v.533a1.6 1.6 0 001.599 1.599h4.265a1.6 1.6 0 001.599-1.599v-.533h9.062c.294 0 .533.239.533.533v2.132a.533.533 0 01-.533.533H1.601a.533.533 0 01-.533-.533V24.56z"/></symbol><symbol id="icon-envelope" viewBox="0 0 32 32"><path d="M29 4H3C1.346 4 0 5.346 0 7v18c0 1.654 1.346 3 3 3h26c1.654 0 3-1.346 3-3V7c0-1.654-1.346-3-3-3zm0 2c.136 0 .266.028.384.078L16 17.678 2.616 6.078A.971.971 0 013 6h26zm0 20H3a1 1 0 01-1-1V8.19l13.344 11.566a.997.997 0 001.313-.001l-.001.001L30 8.19V25a1 1 0 01-1 1z"/></symbol><symbol id="icon-facebook" viewBox="0 0 32 32"><path d="M21.328 5.312h2.923V.224A36.483 36.483 0 0020.143 0h-.156.008c-4.213 0-7.099 2.65-7.099 7.52V12H8.25v5.688h4.646V32h5.699V17.69h4.459l.707-5.688h-5.168V8.08c0-1.643.443-2.768 2.734-2.768z"/></symbol><symbol id="icon-facebook2" viewBox="0 0 32 32"><path d="M21.328 5.312h2.923V.224A36.478 36.478 0 0020.144 0h-.157.008c-4.213 0-7.099 2.65-7.099 7.52V12H8.25v5.688h4.646V32h5.699V17.69h4.459l.709-5.688h-5.17V8.08c0-1.643.443-2.768 2.734-2.768z"/></symbol><symbol id="icon-instagram" viewBox="0 0 32 32"><path d="M31.968 9.408c-.074-1.701-.349-2.869-.742-3.882a7.839 7.839 0 00-1.85-2.837l-.001-.001A7.906 7.906 0 0026.597.861l-.054-.018C25.524.449 24.362.176 22.661.101 20.949.019 20.405 0 16.059 0c-4.344 0-4.888.019-6.595.094-1.699.074-2.869.349-3.88.742a7.847 7.847 0 00-2.839 1.85l-.001.001A7.9 7.9 0 00.919 5.465l-.018.054C.506 6.538.232 7.7.157 9.401c-.082 1.712-.101 2.256-.101 6.602 0 4.344.019 4.888.094 6.595.075 1.701.35 2.869.744 3.882a7.915 7.915 0 001.849 2.837l.001.001c.8.813 1.77 1.443 2.832 1.843 1.019.395 2.182.67 3.882.744 1.707.075 2.251.094 6.595.094 4.346 0 4.89-.019 6.595-.094 1.701-.074 2.869-.349 3.882-.742a8.237 8.237 0 004.664-4.628l.019-.055c.394-1.019.669-2.182.744-3.882.075-1.707.093-2.251.093-6.595s-.006-4.888-.08-6.595zm-2.88 13.066c-.07 1.563-.333 2.406-.55 2.97a5.341 5.341 0 01-3.004 3.024l-.036.012c-.56.219-1.411.482-2.968.55-1.688.075-2.194.094-6.464.094-4.269 0-4.782-.019-6.464-.094-1.563-.069-2.406-.331-2.97-.55a4.953 4.953 0 01-1.836-1.192l-.001-.001a4.978 4.978 0 01-1.184-1.803L3.6 25.45c-.218-.563-.48-1.413-.549-2.97-.075-1.688-.094-2.195-.094-6.464 0-4.27.019-4.784.094-6.464.069-1.563.331-2.406.549-2.97a4.897 4.897 0 011.198-1.837l.002-.002a4.972 4.972 0 011.806-1.182l.034-.011c.56-.219 1.411-.48 2.968-.55 1.688-.074 2.195-.093 6.464-.093 4.275 0 4.782.019 6.464.093 1.563.069 2.406.331 2.97.55a4.91 4.91 0 011.837 1.194c.531.52.938 1.144 1.195 1.84.218.56.48 1.411.549 2.968.075 1.688.094 2.194.094 6.464 0 4.269-.019 4.768-.094 6.458z"/><path d="M16.059 7.782a8.223 8.223 0 00-8.219 8.221v.002a8.222 8.222 0 1016.444 0 8.222 8.222 0 00-8.222-8.222h-.002zm0 13.552a5.333 5.333 0 01.001-10.666h.001a5.334 5.334 0 110 10.668zM26.525 7.458a1.92 1.92 0 01-3.84 0 1.92 1.92 0 013.84 0z"/></symbol><symbol id="icon-instagram2" viewBox="0 0 32 32"><path d="M31.968 9.408c-.074-1.701-.349-2.869-.742-3.882a7.839 7.839 0 00-1.85-2.837l-.001-.001A7.906 7.906 0 0026.597.861l-.054-.018C25.524.449 24.362.176 22.661.101 20.949.019 20.405 0 16.059 0c-4.344 0-4.888.019-6.595.094-1.699.074-2.869.349-3.88.742a7.847 7.847 0 00-2.839 1.85l-.001.001A7.9 7.9 0 00.919 5.465l-.018.054C.506 6.538.232 7.7.157 9.401c-.082 1.712-.101 2.256-.101 6.602 0 4.344.019 4.888.094 6.595.075 1.701.35 2.869.744 3.882a7.915 7.915 0 001.849 2.837l.001.001c.8.813 1.77 1.443 2.832 1.843 1.019.395 2.182.67 3.882.744 1.707.075 2.251.094 6.595.094 4.346 0 4.89-.019 6.595-.094 1.701-.074 2.869-.349 3.882-.742a8.237 8.237 0 004.664-4.628l.019-.055c.394-1.019.669-2.182.744-3.882.075-1.707.093-2.251.093-6.595s-.006-4.888-.08-6.595zm-2.88 13.066c-.07 1.563-.333 2.406-.55 2.97a5.341 5.341 0 01-3.004 3.024l-.036.012c-.56.219-1.411.482-2.968.55-1.688.075-2.194.094-6.464.094-4.269 0-4.782-.019-6.464-.094-1.563-.069-2.406-.331-2.97-.55a4.953 4.953 0 01-1.836-1.192l-.001-.001a4.978 4.978 0 01-1.184-1.803L3.6 25.45c-.218-.563-.48-1.413-.549-2.97-.075-1.688-.094-2.195-.094-6.464 0-4.27.019-4.784.094-6.464.069-1.563.331-2.406.549-2.97a4.897 4.897 0 011.198-1.837l.002-.002a4.972 4.972 0 011.806-1.182l.034-.011c.56-.219 1.411-.48 2.968-.55 1.688-.074 2.195-.093 6.464-.093 4.275 0 4.782.019 6.464.093 1.563.069 2.406.331 2.97.55a4.91 4.91 0 011.837 1.194c.531.52.938 1.144 1.195 1.84.218.56.48 1.411.549 2.968.075 1.688.094 2.194.094 6.464 0 4.269-.019 4.768-.094 6.458z"/><path d="M16.059 7.782a8.223 8.223 0 00-8.219 8.221v.002a8.222 8.222 0 1016.444 0 8.222 8.222 0 00-8.222-8.222h-.002zm0 13.552a5.333 5.333 0 01.001-10.666h.001a5.334 5.334 0 110 10.668zM26.525 7.458a1.92 1.92 0 01-3.84 0 1.92 1.92 0 013.84 0z"/></symbol><symbol id="icon-linkedin" viewBox="0 0 32 32"><path d="M31.992 32H32V20.262c0-5.741-1.237-10.163-7.947-10.163-3.227 0-5.392 1.77-6.277 3.45h-.093v-2.914h-6.365v21.363h6.627V21.42c0-2.786.528-5.48 3.978-5.48 3.398 0 3.448 3.179 3.448 5.658V32h6.621zM.528 10.635h6.635V32H.528V10.635zM3.843 0A3.843 3.843 0 000 3.843c0 2.12 1.722 3.878 3.843 3.878 2.12 0 3.842-1.757 3.842-3.878S5.965.002 3.844 0z"/></symbol><symbol id="icon-linkedin2" viewBox="0 0 32 32"><path d="M31.992 32H32V20.262c0-5.741-1.237-10.163-7.947-10.163-3.227 0-5.392 1.77-6.277 3.45h-.093v-2.914h-6.365v21.363h6.627V21.42c0-2.786.528-5.48 3.978-5.48 3.398 0 3.448 3.179 3.448 5.658V32h6.621zM.528 10.635h6.635V32H.528V10.635zM3.843 0A3.843 3.843 0 000 3.843c0 2.12 1.722 3.878 3.843 3.878 2.12 0 3.842-1.757 3.842-3.878S5.965.002 3.844 0z"/></symbol><symbol id="icon-smartphone" viewBox="0 0 32 32"><path d="M23 0H9C7.346 0 6 1.346 6 3v26c0 1.654 1.346 3 3 3h14c1.654 0 3-1.346 3-3V3c0-1.654-1.346-3-3-3zM9 2h14a1 1 0 011 1v21H8V3a1 1 0 011-1zm14 28H9a1 1 0 01-1-1v-3h16v3a1 1 0 01-1 1z"/><path fill="var(--color4, #757575)" d="M10.708 27.478a.889.889 0 01.001 1.319l-.001.001a1.048 1.048 0 01-1.417 0l.001.001a.889.889 0 01-.001-1.319l.001-.001a1.048 1.048 0 011.417 0l-.001-.001z"/></symbol><symbol id="icon-twitter" viewBox="0 0 32 32"><path d="M32 6.078c-1.1.493-2.376.857-3.713 1.028l-.068.007a6.556 6.556 0 002.873-3.579l.013-.046a12.88 12.88 0 01-4.076 1.573l-.084.014A6.558 6.558 0 0015.6 9.557v.004c0 .52.043 1.021.152 1.496-5.454-.266-10.28-2.88-13.522-6.861a6.524 6.524 0 00-.902 3.313v.001a6.57 6.57 0 002.914 5.451 6.453 6.453 0 01-2.994-.823l.033.017v.072a6.592 6.592 0 005.213 6.44l.043.008a6.403 6.403 0 01-1.662.215h-.061.003c-.419 0-.843-.024-1.242-.112.85 2.598 3.261 4.509 6.13 4.57a13.093 13.093 0 01-8.122 2.8H1.57h.001-.062c-.531 0-1.055-.034-1.569-.099l.061.006c2.826 1.846 6.287 2.944 10.004 2.944h.063-.003c12.072 0 18.672-10 18.672-18.669 0-.288-.01-.57-.024-.848a13.203 13.203 0 003.258-3.355l.03-.047z"/></symbol><symbol id="icon-twitter2" viewBox="0 0 32 32"><path d="M32 6.078c-1.1.493-2.376.857-3.713 1.028l-.068.007a6.556 6.556 0 002.873-3.579l.013-.046a12.88 12.88 0 01-4.076 1.573l-.084.014A6.558 6.558 0 0015.6 9.557v.004c0 .52.043 1.021.152 1.496-5.454-.266-10.28-2.88-13.522-6.861a6.524 6.524 0 00-.902 3.313v.001a6.57 6.57 0 002.914 5.451 6.453 6.453 0 01-2.994-.823l.033.017v.072a6.592 6.592 0 005.213 6.44l.043.008a6.403 6.403 0 01-1.662.215h-.061.003c-.419 0-.843-.024-1.242-.112.85 2.598 3.261 4.509 6.13 4.57a13.093 13.093 0 01-8.122 2.8H1.57h.001-.062c-.531 0-1.055-.034-1.569-.099l.061.006c2.826 1.846 6.287 2.944 10.004 2.944h.063-.003c12.072 0 18.672-10 18.672-18.669 0-.288-.01-.57-.024-.848a13.203 13.203 0 003.258-3.355l.03-.047z"/></symbol></defs></svg>